<?xml version="1.0" encoding="utf-8"?>
<svg xmlns="http://www.w3.org/2000/svg" xmlns:xlink="http://www.w3.org/1999/xlink" version= "1.1" width="2960px" height="1724px" viewBox="0 0 2960 1724">
<rect x="0" y="0" width="2960" height="1724" fill="rgb(255,255,255)"/>
<g id="layer1">
<g style="fill:rgb(156,122,255); fill-opacity:1.0; stroke-linejoin: miter">
<path d="M-22.5542,-77.21214L1499.1559,-77.21176L3020.866,-77.21137Q3020.8662,849.9839,3020.8662,1777.1792Q1499.1561,1777.18,-22.553837,1777.1809Q-22.554075,849.9844,-22.5542,-77.21214"/>
</g>
</g>
<g id="layer2">
<g style="fill:rgb(74,105,254); fill-opacity:1.0; stroke-linejoin: miter">
<path d="M-88.35312,1481.3453L-88.35312,1481.3453C67.33589,1221.5999,241.40385,922.1056,463.06564,922.1056L463.06564,922.1056C472.0249,922.1056,481.03525,922.5906,490.08987,923.576L490.0901,923.576C601.68005,935.7212,718.71924,1025.4408,822.32526,1103.5475L822.32526,1103.5475C930.62915,1185.1958,1025.2999,1255.0525,1106.5636,1263.8971L1106.5635,1263.8971C1112.0938,1264.499,1117.4775,1264.7997,1122.7404,1264.7997L1122.7404,1264.7997C1124.443,1264.7997,1126.1439,1264.7677,1127.8248,1264.7042L1127.8246,1264.7042C1209.9836,1261.601,1285.9818,1183.3721,1379.6578,1082.6101L1379.6578,1082.61C1459.7316,996.4794,1552.1477,895.1658,1663.9514,868.52106L1663.9514,868.52106C1686.2788,863.2,1708.8855,860.92346,1731.4893,860.92346L1731.4893,860.92346C1819.2986,860.92346,1912.4586,895.7906,1996.5887,926.84503L1996.5887,926.84503C2082.8071,958.6703,2159.8489,986.6173,2227.9424,986.6173L2227.9424,986.6173C2258.952,986.6173,2286.876,980.7143,2312.2263,967.15204L2312.2263,967.152C2407.9285,915.95233,2483.0876,752.6538,2560.1084,580.4787L2560.1084,580.4787C2609.8093,469.3757,2660.3901,355.25644,2718.0647,290.88837L2718.0647,290.8884C2761.6443,242.2511,2811.2588,219.17416,2865.0195,219.17416L2865.0195,219.17416C2985.9692,219.17409,3111.92,339.67535,3220.0645,440.27823C3234.7742,453.9621,3235.6057,476.97964,3221.9219,491.68933C3208.238,506.39902,3185.2205,507.2306,3170.5107,493.54672L3170.5107,493.54672C3051.4492,382.78806,2950.1943,291.92783,2865.0195,291.9279L2865.0195,291.9279C2834.9072,291.9279,2804.1406,303.84598,2772.2493,339.4385L2772.2493,339.43854C2724.036,393.24728,2678.395,494.22418,2626.52,610.1873L2626.52,610.1873C2554.796,770.5217,2469.7275,965.40155,2346.5461,1031.3022L2346.5461,1031.3022C2308.6738,1051.5636,2268.4797,1059.3711,2227.9424,1059.3711L2227.9424,1059.3711C2144.1904,1059.3711,2053.9343,1025.5646,1971.3951,995.0975L1971.3951,995.0975C1883.79,962.7603,1803.7017,933.67725,1731.4893,933.67725L1731.4893,933.67725C1713.7709,933.67725,1696.8967,935.4608,1680.8176,939.2928L1680.8176,939.2928C1594.9917,959.7465,1518.2622,1040.3732,1432.942,1132.1471L1432.942,1132.147C1347.902,1223.6196,1249.5668,1332.9115,1130.5707,1337.4061L1130.5704,1337.4061C1127.9586,1337.5048,1125.3545,1337.5533,1122.7404,1337.5533L1122.7404,1337.5533C1114.6985,1337.5533,1106.6866,1337.0939,1098.6919,1336.2238L1098.6918,1336.2238C992.8125,1324.7,879.8862,1238.0535,778.5289,1161.642L778.5289,1161.642C668.2617,1078.5137,569.2791,1005.3782,482.2182,995.90265L482.2184,995.90265C475.77646,995.20154,469.39554,994.8594,463.06564,994.8594L463.06564,994.8594C293.50983,994.8594,142.96986,1236.9287,-25.950533,1518.7489C-36.279232,1535.981,-58.621593,1541.5771,-75.85359,1531.2484C-93.08559,1520.9197,-98.681816,1498.5774,-88.35312,1481.3453 Z"/>
</g>
<g style="fill:rgb(74,105,254); fill-opacity:1.0; stroke-linejoin: miter">
<path d="M854.3064,1824.5913L854.3064,1824.5913C1064.9296,1742.1735,1253.6499,1666.1404,1318.8627,1449.0775L1318.8627,1449.0776C1349.1545,1348.2495,1353.5947,1215.8171,1357.815,1082.1277L1357.815,1082.1277C1361.601,962.19006,1365.1893,839.529,1391.9067,750.5989L1391.9067,750.5989C1400.827,720.9074,1412.7689,693.2774,1429.2988,670.0238L1429.2987,670.02386C1491.77,582.1416,1605.6963,576.9647,1700.3004,570.4935L1700.3003,570.4935C1800.1925,563.6606,1891.5979,556.2135,1959.8844,497.88962L1959.8844,497.8896C2106.8193,372.3919,2162.1787,7.038025,2219.1438,-386.75598C2222.02,-406.63943,2240.4705,-420.42648,2260.354,-417.5502C2280.2375,-414.67392,2294.0244,-396.22348,2291.1482,-376.34003L2291.1482,-376.34003C2236.6895,0.1277771,2180.6267,405.03143,2007.1349,553.21136L2007.1349,553.2113C1917.5183,629.7533,1800.2643,636.5794,1705.2654,643.07764L1705.2653,643.07764C1599.279,650.3274,1527.1978,657.87415,1488.597,712.1762L1488.5969,712.1763C1478.0784,726.97327,1469.0549,746.6647,1461.584,771.5321L1461.584,771.5321C1438.2397,849.23444,1434.4379,960.70496,1430.5325,1084.4231L1430.5325,1084.4231C1426.4092,1215.0454,1422.152,1358.1312,1388.5399,1470.0107L1388.5399,1470.0109C1311.6495,1725.9426,1085.283,1812.3347,880.8179,1892.3428C862.1088,1899.6637,841.0074,1890.4318,833.68646,1871.7228C826.36554,1853.0138,835.59735,1831.9122,854.3064,1824.5913 Z"/>
</g>
<g style="fill:rgb(74,105,254); fill-opacity:1.0; stroke-linejoin: miter">
<path d="M1763.5941,1906.0283L1763.5944,1906.0248L1763.6273,1905.4429L1763.6271,1905.4464C1776.2825,1681.6173,1785.8607,1398.2501,2009.8163,1359.0624L2009.816,1359.0624C2028.7516,1355.7489,2048.6763,1354.3292,2069.2075,1354.3292L2069.2075,1354.3292C2169.7634,1354.3292,2298.0103,1388.9447,2421.8933,1422.098L2421.8936,1422.098C2555.0212,1457.7255,2684.3816,1492.0635,2786.976,1492.0636L2786.976,1492.0636C2791.6426,1492.0636,2796.2346,1491.9915,2800.75,1491.8453L2800.7502,1491.8453C3008.737,1485.1156,3099.9426,1319.1411,3202.4685,1125.7712C3211.8796,1108.0214,3233.898,1101.2615,3251.6477,1110.6726C3269.3975,1120.0837,3276.1575,1142.1019,3266.7463,1159.8518L3266.7463,1159.8518C3168.9207,1344.3568,3059.7734,1556.256,2803.1033,1564.5609L2803.1035,1564.5609C2797.7634,1564.7338,2792.3962,1564.8173,2786.976,1564.8173L2786.976,1564.8173C2672.7163,1564.8171,2532.9722,1527.1388,2403.085,1492.3785L2403.0852,1492.3785C2275.5798,1458.2559,2157.9963,1427.0829,2069.2075,1427.0829L2069.2075,1427.0829C2051.9363,1427.0829,2036.3159,1428.2844,2022.3566,1430.7272L2022.3563,1430.7272C1868.5612,1457.6383,1850.7332,1653.6595,1836.2648,1909.5533L1836.2645,1909.5569L1836.2316,1910.1388C1835.0977,1930.1936,1817.9178,1945.5348,1797.8595,1944.4006C1777.8011,1943.2665,1762.46,1926.0867,1763.5941,1906.0283 Z"/>
</g>
<g style="fill:rgb(74,105,254); fill-opacity:1.0; stroke-linejoin: miter">
<path d="M-272.3277,786.0632L-272.3277,786.0632C-96.418945,543.0667,95.730225,272.1081,337.50684,255.90729L337.50696,255.90729C345.5338,255.36945,353.56372,255.11334,361.594,255.11334L361.594,255.11334C469.83362,255.11334,583.28406,302.26898,680.1072,342.0108L680.1072,342.0108C768.4188,378.25922,840.43835,407.12213,896.2274,407.12213L896.2274,407.12213C914.18274,407.12213,928.808,404.0152,940.95154,398.08405L940.95154,398.08405C1053.0333,343.34015,1073.3932,25.461426,1090.5226,-347.83743C1091.464,-368.35437,1108.8595,-384.2234,1129.3763,-383.28195C1149.8934,-382.34045,1165.7623,-364.94504,1164.8209,-344.4281L1164.8209,-344.4281C1149.3561,-7.402527,1137.121,385.04376,973.5936,464.91498L973.5936,464.91498C949.0858,476.8853,922.7628,481.49872,896.2274,481.49872L896.2274,481.49872C822.3683,481.49872,734.6583,444.8,651.86536,410.81696L651.86536,410.81696C551.33386,369.55292,452.2921,329.48993,361.594,329.48993L361.594,329.48993C355.1444,329.48993,348.77686,329.6955,342.47925,330.1175L342.47937,330.1175C143.92908,343.4218,-25.956299,572.56854,-212.08069,829.67694C-224.12427,846.3138,-247.37427,850.0372,-264.0111,837.99347C-280.64795,825.9499,-284.37134,802.7,-272.3277,786.0632 Z"/>
</g>
</g>
</svg>